# xmcd CD database file
#
# Track frame offsets:
#	150
#	14306
#	28032
#	40940
#	56981
#	75187
#	84160
#	97345
#	109653
#	122946
#	135194
#	143404
#	156235
#	171676
#	184631
#	194130
#	207108
#	231620
#	248728
#
# Disc length: 3500 seconds
#
# Revision: 0
# Processed by: cddbd v1.5.2PL0 Copyright (c) Steve Scherf et al.
# Submitted via: CDex 1.51
#
DISCID=070daa13
DTITLE=Various Artist - Mein Macker is'n Trucker CD 2
DYEAR=1900
DGENRE=Country
TTITLE0=Mary Mc Allan - Mein Macker is'n Trucker 
TTITLE1=Marcel - Du bist
TTITLE2=Gunter Gabriel - Hey Boss, ich brauch' mehr Geld
TTITLE3=Andre Lamberz and Hill's Angels - Auf der Autobahn 
TTITLE4=Tennessee Ernest G. - Ein Laster mit 'nem Cowboyhut 
TTITLE5=Die vier von der Tankstelle - Lieber erst um 10 zu Haus als 10 vor 10 im Krankenhaus 
TTITLE6=Mary Mc Allan - Mein Schatz fährt auf der Autobahn 
TTITLE7=Ladies-Country-Express - 10 Tage auf der Autobahn 
TTITLE8=Tony Cajee's Country Five - Take it Easy 
TTITLE9=Tennessee Ernest G. - Moonlight 
TTITLE10=Die vier von der Tankstelle - Ohne Hupe, ohne Bremse, ohne Licht 
TTITLE11=Peter Beil - Corinna, Corinna 
TTITLE12=Mary Mc Allan - Willi, mach schon 
TTITLE13=Wilk and Friends - Das kleine Ding 
TTITLE14=Western Railroad - Geboren, um Dieseltruck zu fahren 
TTITLE15=Peter Orloff - Wer hat ein Herz, das nie bricht 
TTITLE16=Sammy and Andre - Wenn ich nur ein Trucker wär' 
TTITLE17=Andre Lamberz and Hill's Angels - Lucille 
TTITLE18=Gunter Gabriel - Ohne Moos nichts los 
EXTD=
EXTT0=
EXTT1=
EXTT2=
EXTT3=
EXTT4=
EXTT5=
EXTT6=
EXTT7=
EXTT8=
EXTT9=
EXTT10=
EXTT11=
EXTT12=
EXTT13=
EXTT14=
EXTT15=
EXTT16=
EXTT17=
EXTT18=
PLAYORDER=
